<mxfile host="app.diagrams.net" modified="2022-08-17T07:30:16.243Z" agent="5.0 (X11; Linux x86_64) AppleWebKit/537.36 (KHTML, like Gecko) Chrome/104.0.0.0 Safari/537.36" etag="drmdyVZhGPGLxGMXG14Q" version="20.2.4" type="github">
  <diagram id="o6OXmS90365OrSwRLali" name="beginner_level">
    <mxGraphModel dx="1422" dy="761" grid="1" gridSize="10" guides="1" tooltips="1" connect="1" arrows="1" fold="1" page="1" pageScale="1" pageWidth="827" pageHeight="1169" background="#333333" math="0" shadow="0">
      <root>
        <mxCell id="0" />
        <mxCell id="1" parent="0" />
        <mxCell id="3lLjW_SJBXpCS5TzsEJV-9" value="" style="edgeStyle=orthogonalEdgeStyle;rounded=0;orthogonalLoop=1;jettySize=auto;html=1;fontColor=#E6E6E6;strokeColor=#E6E6E6;" edge="1" parent="1" source="3lLjW_SJBXpCS5TzsEJV-5" target="3lLjW_SJBXpCS5TzsEJV-8">
          <mxGeometry relative="1" as="geometry" />
        </mxCell>
        <mxCell id="3lLjW_SJBXpCS5TzsEJV-5" value="&lt;font color=&quot;#e6e6e6&quot;&gt;账号&lt;/font&gt;" style="shape=actor;whiteSpace=wrap;html=1;fillColor=none;strokeColor=#E6E6E6;" vertex="1" parent="1">
          <mxGeometry x="430" y="160" width="40" height="60" as="geometry" />
        </mxCell>
        <mxCell id="3lLjW_SJBXpCS5TzsEJV-11" value="" style="edgeStyle=orthogonalEdgeStyle;rounded=0;orthogonalLoop=1;jettySize=auto;html=1;fontColor=#E6E6E6;strokeColor=#E6E6E6;" edge="1" parent="1" source="3lLjW_SJBXpCS5TzsEJV-8" target="3lLjW_SJBXpCS5TzsEJV-10">
          <mxGeometry relative="1" as="geometry" />
        </mxCell>
        <mxCell id="3lLjW_SJBXpCS5TzsEJV-13" value="" style="edgeStyle=orthogonalEdgeStyle;rounded=0;orthogonalLoop=1;jettySize=auto;html=1;fontColor=#E6E6E6;strokeColor=#E6E6E6;" edge="1" parent="1" source="3lLjW_SJBXpCS5TzsEJV-8" target="3lLjW_SJBXpCS5TzsEJV-12">
          <mxGeometry relative="1" as="geometry" />
        </mxCell>
        <mxCell id="3lLjW_SJBXpCS5TzsEJV-8" value="&lt;font color=&quot;#e6e6e6&quot;&gt;家属&lt;/font&gt;" style="shape=actor;whiteSpace=wrap;html=1;fillColor=none;strokeColor=#E6E6E6;" vertex="1" parent="1">
          <mxGeometry x="430" y="300" width="40" height="60" as="geometry" />
        </mxCell>
        <mxCell id="3lLjW_SJBXpCS5TzsEJV-10" value="&lt;font color=&quot;#e6e6e6&quot;&gt;超级管理员&lt;/font&gt;" style="shape=actor;whiteSpace=wrap;html=1;fillColor=none;strokeColor=#E6E6E6;" vertex="1" parent="1">
          <mxGeometry x="430" y="440" width="40" height="60" as="geometry" />
        </mxCell>
        <mxCell id="3lLjW_SJBXpCS5TzsEJV-12" value="&lt;font color=&quot;#e6e6e6&quot;&gt;平台运营操作员&lt;/font&gt;" style="shape=actor;whiteSpace=wrap;html=1;fillColor=none;strokeColor=#E6E6E6;" vertex="1" parent="1">
          <mxGeometry x="550" y="300" width="40" height="60" as="geometry" />
        </mxCell>
      </root>
    </mxGraphModel>
  </diagram>
</mxfile>
